<?xml version="1.0" encoding="utf-8"?>
<!-- Generator: Adobe Illustrator 21.0.0, SVG Export Plug-In . SVG Version: 6.00 Build 0)  -->
<svg version="1.1" id="Calque_1" xmlns="http://www.w3.org/2000/svg" xmlns:xlink="http://www.w3.org/1999/xlink" x="0px" y="0px"
	 viewBox="0 0 2834.6 2834.6" style="enable-background:new 0 0 2834.6 2834.6;" xml:space="preserve">
<style type="text/css">
	.st0{fill:#F72585;}
</style>
<g>
	<g id="XMLID_1_">
		<path class="st0" d="M2809.1,868.5c8.8,30.1-5.4,48-28.4,58.2c-20.2,9-40.9,17-61.4,25.1c-7.2,2.8-9.8,6.6-9.6,14.9
			c0.7,41.1,1.9,82.3-0.2,123.2c-1.6,31.9-7.4,63.6-12.3,95.2c-1.3,8.2,0.8,11.1,7.8,14.1c23.3,9.9,46.1,20.7,69.3,30.9
			c18.6,8.1,37.3,31.1,27.6,59.3c-14.2,41.5-27.1,83.4-38.6,125.7c-9.8,35.6-30.5,42.8-62.5,38.3c-12.5-1.8-24.9-4.5-37.3-6.7
			c-12.4-2.3-24.9-4.5-38.5-6.9c-5.8,13.7-11.2,27.7-17.4,41.2c-18.1,39.5-36.4,79-55.1,118.2c-3.6,7.4-3.1,11.5,3.6,16.8
			c23.4,18.3,46.2,37.3,69.2,56c18.4,15,23.3,38.5,11,58.5c-25.9,42.1-52.2,84-78.7,125.7c-11.7,18.3-34.9,22.9-58.3,12.2
			c-22.3-10.1-44.5-20.6-66.6-31.1c-18.2-8.6-17.8-8.4-29.8,7.1c-29.5,38.2-59.1,76.3-89.2,114c-6.6,8.3-7.7,14-0.3,22.3
			c16,18.1,31,37.1,46.7,55.5c16.4,19.2,21.2,46.7-1.1,69.1c-32.5,32.5-63.1,66.9-94.9,100c-18.2,18.9-40.7,19.5-64.4,2.5
			c-21.8-15.7-43.5-31.7-64.9-47.9c-5.9-4.5-9.2-4.3-15,0.8c-41.5,36.2-83.2,72-125.2,107.5c-12.9,11-13.3,10.4-4.8,25.8
			c10.5,19,20.7,38.2,31.1,57.3c13.2,24.3,7.2,48.8-15.4,64.6c-34.7,24.3-70.2,47.6-103.6,73.5c-32.5,25.2-56.2,16.1-79-10
			c-14-16.1-29-31.5-43.1-47.5c-4.5-5.2-8-4.3-13.1-1.2c-48.5,29.2-96.9,58.3-145.6,87c-17.2,10.2-34.8,19.7-52.7,28.5
			c-8.2,4-10.7,8.7-10.1,17.5c1.8,28.9,3.1,57.8,4,86.7c1,32.4-12.4,48.4-44.3,53.6c-42.9,7-85.9,14-128.8,21.2
			c-30.2,5-46.9-4.2-56.4-33.5c-9.2-28.2-16.7-56.8-26-85c-2.1-6.3-7.6-13-13.3-16.3c-88.8-50.4-175.8-103.6-259.1-162.6
			c-12.3-8.7-24.7-17.1-41.1-28.5c-19.4,20.9-39.4,41.8-58.5,63.5c-15.2,17.2-45.6,20-62,6.1c-36.6-30.8-75-59.6-112.4-89.6
			c-18.5-14.9-22.3-40.3-9.7-61c15.4-25.3,31.1-50.4,46.2-74.8c-45.7-43.8-90.8-87.1-136.6-131.1c-24.3,15.7-49.6,31.7-74.5,48.3
			c-32.6,21.7-51.3,19-76.6-11.3c-27.1-32.5-53.8-65.5-82.3-96.8c-19.3-21.2-14.1-49.6,1.6-66.4c21.5-23.1,42.9-46.5,64.3-69.8
			c-19.6-27.7-38.9-54.7-57.7-81.9c-12.4-17.9-24.5-36-35.9-54.5c-4-6.4-7.1-7.7-14-4.8c-27.7,11.5-55.7,22.4-83.7,33.4
			c-29.9,11.7-48.9,3.3-64.1-25.1c-20.1-37.6-40.6-75.1-63-111.4c-18.7-30.4-4.9-55,14.9-69.2c24.7-17.8,49.2-35.9,73.9-53.7
			c5.6-4,7.3-7.6,4.5-14.8c-20.3-51.9-40.1-104-60-156c-0.4-1-1-2-2.3-4.5c-19.6,2.3-39.6,4.6-59.5,7c-11.8,1.4-23.6,3.3-35.4,3.8
			c-25.4,1-40.5-10-46.9-34.4c-12.4-47.8-24.5-95.6-36.3-143.5c-4.5-18.2,10.2-40.7,30.3-48.3c27.3-10.4,54.4-21.2,81.8-31.1
			c8.5-3,9-8.1,8.7-15.4c-2.6-49.3-5.7-98.6-6.9-148c-0.5-21.3,2.4-42.7,5.2-63.9c1.1-7.9-1.6-10.2-7.7-13
			C115.2,876.1,92,865.1,69,853.7c-24.6-12.2-32.8-31.7-24.5-57.8c14.1-44,28.4-87.9,42.9-131.8c8.1-24.4,28.5-36.7,53.6-32.2
			c26.1,4.7,52.1,9.7,77.9,15.7c9.1,2.1,12.4-1,16.4-8.1c26.2-46,58.7-87.2,96.1-126.8c-9.5-17.4-19.3-35.3-29-53.2
			c-5.3-9.7-10.9-19.4-15.4-29.5c-8-17.7-3.4-42.6,15.6-55.5c38-25.7,74.3-54,111.4-80.9c23.7-17.1,45.6-15,65.7,6.2
			c18.5,19.5,37.2,38.9,55,59.1c5.4,6.2,9.2,5.9,15.9,3c55.4-24.1,113.1-39.8,172.8-49.2c3.7-0.6,8.8-5.1,9.9-8.7
			c7.1-24.7,13.4-49.6,19.7-74.4c9-35.2,27.1-47.5,62.1-42.4c11.7,1.7,23.6,2.9,35.3,4.6c30.9,4.4,61.8,8.6,92.6,13.7
			c33.6,5.5,47.6,26.1,44.3,60.6c-1.7,18.4-1.2,37.2-0.6,55.8c0.1,2.9,5.3,7,8.9,8.1c46.1,13.5,90.7,30.6,133.4,52.5
			c9.8,5,19.4,10.6,27.5,15.1c16.5-15.6,33.2-30.1,48.5-46c20.6-21.5,44.5-29.5,71.9-7.3c34.4,27.9,70.7,53.6,106.2,80.2
			c21.4,16,26.5,39.8,13.3,62.9c-13.3,23.3-27.1,46.4-39.8,70c-2.3,4.2-2.9,12.3-0.4,15.7c29,39.3,54.4,80.6,75.1,124.9
			c0.6,1.3,1.7,2.4,3.5,5c8.9-15.2,16.4-29.8,25.6-43.3c17.7-25.7,36.1-50.9,54.7-76c3.9-5.3,4.4-8.6,1.2-14.6
			c-13.9-26.2-27.2-52.7-40.4-79.3c-9.4-18.9-8-47.6,17.2-63.1c40-24.6,78.5-51.9,117.5-78.2c16.7-11.2,39.4-9.6,53.3,5.1
			c17.5,18.6,34.5,37.7,51.1,57c4.2,4.9,6.7,5.7,12.6,2.7c49.9-25.2,102.1-44.7,156.7-57.1c8-1.8,10.4-5.2,10.7-12.4
			c0.9-23.7,0.9-47.6,3.2-71.1c2.6-25.4,20.1-39.1,45.7-40.9c41.9-3,83.9-5.6,125.5-11c36.8-4.8,55.2,10.6,62.1,45.1
			c5,25.2,10.4,50.3,16.3,75.3c0.9,3.7,4.8,8.8,8,9.3c60,10.8,116.6,31.5,171.1,58.3c7.6,3.7,12.3,2.9,18.2-3
			c18.5-18.5,37.8-36.2,56.5-54.5c18.4-18,46.2-19.8,66.2-2.4c34.4,29.8,70.5,57.5,105.9,86.2c20.1,16.3,24.3,37.6,11,60.2
			c-14.8,25.2-30.3,49.9-45.4,74.7c18.7,25.1,38,49.7,55.6,75.3c13.2,19.2,24.6,39.7,36.1,60c3.4,6,6.2,8.2,13.7,6.9
			c24.6-4.2,49.3-7.6,74-10.6c29.8-3.6,47.6,8.7,55.5,37.7C2785.7,782.4,2796.6,825.7,2809.1,868.5z M2403.5,1194
			c6.6-58,5.8-115.3-5.6-172.5c-18.9-94.9-60.9-178.3-125.2-250.4c-65.2-73.2-144.4-124.9-237.7-155.1
			c-70.3-22.8-142.3-27.4-214.9-18.6c-72.3,8.8-139.9,32.8-202.3,70.7c-57.1,34.7-106.6,77.9-146.2,131.9
			c-16,21.9-30.9,44.8-46.7,67.9c-1.7-3.2-3.6-6.5-5.3-9.9c-50.4-100.4-125.6-177-224.5-229.7c-62.8-33.5-130-52.5-201.2-58.5
			c-77.2-6.6-151.6,4.9-223.7,31.8c-60.6,22.6-114.9,55.7-163.6,98.6c-54.3,48-96.6,104.6-126.9,170
			c-53.7,115.7-59,236.8-37.9,360.4c10.6,62.5,25.1,124.1,48.5,183c23.1,58.2,45.8,116.8,73.4,172.9c40.2,81.4,90,157.1,145.6,229
			c58.8,76,123.4,146.5,193.8,211.8c81.2,75.3,168.1,143.5,261.1,203.7c56.4,36.5,114.8,70,172.5,104.4
			c20.7,12.4,43.9,17.5,67.4,11.7c17.7-4.3,35-11.5,51.5-19.4c106.2-50.8,207.6-110,303.8-177.7c103.2-72.6,199.1-153.8,285.2-246.4
			c61.9-66.6,118.2-137.5,167.8-213.7c37.6-57.7,70.8-118,99.1-181C2356.6,1408.1,2390.9,1304.3,2403.5,1194z"/>
		<path class="st0" d="M2397.9,1019.1c11.4,57.2,12.2,114.5,5.6,172.5c-12.6,110.4-46.9,214.2-92,314.9
			c-28.2,63-61.4,123.3-99.1,181c-49.6,76.1-105.9,147.1-167.8,213.7c-86.1,92.6-182,173.8-285.2,246.4
			c-96.2,67.7-197.6,126.9-303.8,177.7c-16.5,7.9-33.8,15-51.5,19.4c-23.5,5.8-46.6,0.6-67.4-11.7
			c-57.8-34.4-116.1-67.9-172.5-104.4c-92.9-60.2-179.8-128.3-261.1-203.7c-70.4-65.3-135-135.8-193.8-211.8
			c-55.6-71.9-105.5-147.6-145.6-229c-27.7-56.1-50.3-114.7-73.4-172.9c-23.4-58.9-37.9-120.6-48.5-183
			c-21-123.6-15.7-244.7,37.9-360.4c30.3-65.4,72.6-122,126.9-170c48.6-43,103-76,163.6-98.6c72.1-26.9,146.5-38.4,223.7-31.8
			c71.2,6,138.4,25,201.2,58.5c98.9,52.8,174.1,129.3,224.5,229.7c1.7,3.4,3.6,6.7,5.3,9.9c15.9-23.1,30.7-45.9,46.7-67.9
			c39.6-54,89.1-97.2,146.2-131.9c62.5-37.9,130.1-61.9,202.3-70.7c72.6-8.8,144.6-4.2,214.9,18.6c93.3,30.2,172.5,82,237.7,155.1
			C2337,840.8,2379,924.2,2397.9,1019.1z M2389.4,1122.6c-3.4-29.8-5.5-59.9-10.5-89.4c-17.2-102.1-63.6-189.8-134.6-264.6
			c-40.4-42.5-86.9-77-139.2-103.7c-71.2-36.3-146.6-54.5-226.4-53c-57.7,1.1-113.8,11.2-168.1,32c-70.3,26.8-131.4,67-183.9,120.6
			c-37.1,37.9-66.6,81.2-90.7,128.5c-2.2,4.3-7.8,9.7-11.7,9.6c-3.6-0.1-8.4-6.2-10.4-10.7c-20.4-45.4-45.3-88.2-77.7-126
			c-59.9-69.8-132.7-121.3-220.2-151.6c-79.1-27.4-160.1-33.8-242.4-21.3C792,605.1,717.9,637.6,652,686.6
			c-50.1,37.3-91.8,83.3-124.8,137c-50,81.2-74.3,169.8-76.1,264.5c-1.3,67.7,8.7,134.1,24.1,199.9c19.6,83.8,48.2,164.5,84.8,242.1
			c47.6,100.9,106.3,195.1,175.6,282.8c46.7,59.1,96.8,115.1,150.7,167.6c56.5,55,116,106.7,179.8,153.2
			c46.4,33.7,93.1,67.1,141.1,98.3c44.1,28.6,89.9,54.6,135.5,80.9c24.3,14,50.7,18.4,77.3,7c20.2-8.6,39.7-19.1,59-29.6
			c45.6-24.6,91.8-48.2,136.1-74.9c49.8-29.9,99-61.2,146.4-94.7c63.7-45.1,124.1-94.4,181.4-147.6
			c76.9-71.4,147.9-147.9,208.1-233.8c36.2-51.8,70-105.5,101.3-160.3c37.4-65.6,66.5-135.2,89.9-207.1
			C2368.3,1290.8,2386,1208.3,2389.4,1122.6z"/>
	</g>
</g>
</svg>
